<svg xmlns="http://www.w3.org/2000/svg" width="980" height="620" viewBox="0 0 980 620">
<rect width="100%" height="100%" fill="#ffffff"/>
<style>text{font-family:Arial,"Microsoft YaHei",sans-serif;} .title{font-size:28px;font-weight:700;fill:#222;} .axis{font-size:15px;fill:#333;} .label{font-size:15px;fill:#222;} .value{font-size:16px;font-weight:700;fill:#222;} .note{font-size:13px;fill:#555;}</style>
<text class="title" x="490.0" y="45" text-anchor="middle">Median Local Runtime by Mode</text>
<text class="axis" x="30" y="285.0" transform="rotate(-90 30 285.0)" text-anchor="middle">milliseconds</text>
<line x1="120" y1="480" x2="900" y2="480" stroke="#333" stroke-width="2"/>
<line x1="120" y1="90" x2="120" y2="480" stroke="#333" stroke-width="2"/>
<line x1="114" y1="480.0" x2="900" y2="480.0" stroke="#e6e6e6" stroke-width="1"/>
<text class="axis" x="108" y="485.0" text-anchor="end">0</text>
<line x1="114" y1="402.0" x2="900" y2="402.0" stroke="#e6e6e6" stroke-width="1"/>
<text class="axis" x="108" y="407.0" text-anchor="end">15</text>
<line x1="114" y1="324.0" x2="900" y2="324.0" stroke="#e6e6e6" stroke-width="1"/>
<text class="axis" x="108" y="329.0" text-anchor="end">30</text>
<line x1="114" y1="246.0" x2="900" y2="246.0" stroke="#e6e6e6" stroke-width="1"/>
<text class="axis" x="108" y="251.0" text-anchor="end">45</text>
<line x1="114" y1="168.0" x2="900" y2="168.0" stroke="#e6e6e6" stroke-width="1"/>
<text class="axis" x="108" y="173.0" text-anchor="end">60</text>
<line x1="114" y1="90.0" x2="900" y2="90.0" stroke="#e6e6e6" stroke-width="1"/>
<text class="axis" x="108" y="95.0" text-anchor="end">75</text>
<rect x="190.0" y="479.9" width="166.7" height="0.1" rx="4" fill="#d95f02"/>
<text class="value" x="273.3" y="469.9" text-anchor="middle">0.0115</text>
<text class="label" x="273.3" y="518" text-anchor="middle">Baseline</text>
<rect x="426.7" y="112.2" width="166.7" height="367.8" rx="4" fill="#1b9e77"/>
<text class="value" x="510.0" y="102.2" text-anchor="middle">70.7349</text>
<text class="label" x="510.0" y="518" text-anchor="middle">Merkle SD</text>
<rect x="663.3" y="459.1" width="166.7" height="20.9" rx="4" fill="#386cb0"/>
<text class="value" x="746.7" y="449.1" text-anchor="middle">4.0201</text>
<text class="label" x="746.7" y="518" text-anchor="middle">Blind Token</text>
<text class="note" x="120" y="570">Generated by plot_results.py from results/summary.json. Python local measurements; not production ZKP timings.</text>
</svg>