<svg xmlns="http://www.w3.org/2000/svg" width="980" height="620" viewBox="0 0 980 620">
<rect width="100%" height="100%" fill="#ffffff"/>
<style>text{font-family:Arial,"Microsoft YaHei",sans-serif;} .title{font-size:28px;font-weight:700;fill:#222;} .axis{font-size:15px;fill:#333;} .label{font-size:15px;fill:#222;} .value{font-size:16px;font-weight:700;fill:#222;} .note{font-size:13px;fill:#555;}</style>
<text class="title" x="490.0" y="45" text-anchor="middle">Mean Personal Attribute Leakage</text>
<text class="axis" x="30" y="285.0" transform="rotate(-90 30 285.0)" text-anchor="middle">estimated bits</text>
<line x1="120" y1="480" x2="900" y2="480" stroke="#333" stroke-width="2"/>
<line x1="120" y1="90" x2="120" y2="480" stroke="#333" stroke-width="2"/>
<line x1="114" y1="480.0" x2="900" y2="480.0" stroke="#e6e6e6" stroke-width="1"/>
<text class="axis" x="108" y="485.0" text-anchor="end">0</text>
<line x1="114" y1="402.0" x2="900" y2="402.0" stroke="#e6e6e6" stroke-width="1"/>
<text class="axis" x="108" y="407.0" text-anchor="end">46</text>
<line x1="114" y1="324.0" x2="900" y2="324.0" stroke="#e6e6e6" stroke-width="1"/>
<text class="axis" x="108" y="329.0" text-anchor="end">92</text>
<line x1="114" y1="246.0" x2="900" y2="246.0" stroke="#e6e6e6" stroke-width="1"/>
<text class="axis" x="108" y="251.0" text-anchor="end">138</text>
<line x1="114" y1="168.0" x2="900" y2="168.0" stroke="#e6e6e6" stroke-width="1"/>
<text class="axis" x="108" y="173.0" text-anchor="end">184</text>
<line x1="114" y1="90.0" x2="900" y2="90.0" stroke="#e6e6e6" stroke-width="1"/>
<text class="axis" x="108" y="95.0" text-anchor="end">230</text>
<rect x="190.0" y="105.3" width="166.7" height="374.7" rx="4" fill="#d95f02"/>
<text class="value" x="273.3" y="95.3" text-anchor="middle">221</text>
<text class="label" x="273.3" y="518" text-anchor="middle">Baseline</text>
<rect x="426.7" y="475.5" width="166.7" height="4.5" rx="4" fill="#1b9e77"/>
<text class="value" x="510.0" y="465.5" text-anchor="middle">2.67</text>
<text class="label" x="510.0" y="518" text-anchor="middle">Merkle SD</text>
<rect x="663.3" y="478.3" width="166.7" height="1.7" rx="4" fill="#386cb0"/>
<text class="value" x="746.7" y="468.3" text-anchor="middle">1</text>
<text class="label" x="746.7" y="518" text-anchor="middle">Blind Token</text>
<text class="note" x="120" y="570">Generated by plot_results.py from results/summary.json. Python local measurements; not production ZKP timings.</text>
</svg>