<svg xmlns="http://www.w3.org/2000/svg" width="1080" height="660" viewBox="0 0 1080 660">
<rect width="100%" height="100%" fill="#ffffff"/>
<style>text{font-family:Arial,"Microsoft YaHei",sans-serif;} .title{font-size:28px;font-weight:700;fill:#222;} .axis{font-size:15px;fill:#333;} .label{font-size:15px;fill:#222;} .value{font-size:16px;font-weight:700;fill:#222;} .note{font-size:13px;fill:#555;}</style>
<text class="title" x="540.0" y="45" text-anchor="middle">Privacy Gain: Personal Leakage vs Linkability</text>
<line x1="115" y1="485" x2="965" y2="485" stroke="#333" stroke-width="2"/>
<line x1="115" y1="95" x2="115" y2="485" stroke="#333" stroke-width="2"/>
<line x1="109" y1="485.0" x2="965" y2="485.0" stroke="#e6e6e6" stroke-width="1"/>
<text class="axis" x="103" y="490.0" text-anchor="end">0</text>
<line x1="109" y1="407.0" x2="965" y2="407.0" stroke="#e6e6e6" stroke-width="1"/>
<text class="axis" x="103" y="412.0" text-anchor="end">46</text>
<line x1="109" y1="329.0" x2="965" y2="329.0" stroke="#e6e6e6" stroke-width="1"/>
<text class="axis" x="103" y="334.0" text-anchor="end">92</text>
<line x1="109" y1="251.0" x2="965" y2="251.0" stroke="#e6e6e6" stroke-width="1"/>
<text class="axis" x="103" y="256.0" text-anchor="end">138</text>
<line x1="109" y1="173.0" x2="965" y2="173.0" stroke="#e6e6e6" stroke-width="1"/>
<text class="axis" x="103" y="178.0" text-anchor="end">184</text>
<line x1="109" y1="95.0" x2="965" y2="95.0" stroke="#e6e6e6" stroke-width="1"/>
<text class="axis" x="103" y="100.0" text-anchor="end">230</text>
<rect x="173.7" y="110.3" width="75" height="374.7" rx="4" fill="#d95f02"/>
<rect x="264.7" y="464.7" width="75" height="20.3" rx="4" fill="#e7298a"/>
<text class="value" x="211.2" y="100.3" text-anchor="middle">221</text>
<text class="value" x="302.2" y="454.7" text-anchor="middle">12</text>
<text class="label" x="256.7" y="523" text-anchor="middle">Baseline</text>
<rect x="457.0" y="480.5" width="75" height="4.5" rx="4" fill="#1b9e77"/>
<rect x="548.0" y="464.7" width="75" height="20.3" rx="4" fill="#e7298a"/>
<text class="value" x="494.5" y="470.5" text-anchor="middle">2.67</text>
<text class="value" x="585.5" y="454.7" text-anchor="middle">12</text>
<text class="label" x="540.0" y="523" text-anchor="middle">Merkle SD</text>
<rect x="740.3" y="483.3" width="75" height="1.7" rx="4" fill="#386cb0"/>
<rect x="831.3" y="485.0" width="75" height="0.0" rx="4" fill="#e7298a"/>
<text class="value" x="777.8" y="473.3" text-anchor="middle">1</text>
<text class="value" x="868.8" y="475.0" text-anchor="middle">0</text>
<text class="label" x="823.3" y="523" text-anchor="middle">Blind Token</text>
<rect x="710" y="88" width="18" height="18" fill="#386cb0"/><text class="axis" x="736" y="103">personal leakage bits</text>
<rect x="710" y="116" width="18" height="18" fill="#e7298a"/><text class="axis" x="736" y="131">linkable presentations (0-12)</text>
<text class="note" x="115" y="590">Key point: Merkle selective disclosure hides most fields but remains linkable; blind tokens minimize leakage and remove stable redemption handles.</text>
</svg>