<?xml version="1.0" encoding="utf-8" standalone="no"?>
<!DOCTYPE svg PUBLIC "-//W3C//DTD SVG 1.1//EN"
  "http://www.w3.org/Graphics/SVG/1.1/DTD/svg11.dtd">
<svg xmlns:xlink="http://www.w3.org/1999/xlink" width="656.1pt" height="286.056pt" viewBox="0 0 656.1 286.056" xmlns="http://www.w3.org/2000/svg" version="1.1">
 <metadata>
  <rdf:RDF xmlns:dc="http://purl.org/dc/elements/1.1/" xmlns:cc="http://creativecommons.org/ns#" xmlns:rdf="http://www.w3.org/1999/02/22-rdf-syntax-ns#">
   <cc:Work>
    <dc:type rdf:resource="http://purl.org/dc/dcmitype/StillImage"/>
    <dc:date>2026-06-06T10:53:22.267436</dc:date>
    <dc:format>image/svg+xml</dc:format>
    <dc:creator>
     <cc:Agent>
      <dc:title>Matplotlib v3.10.9, https://matplotlib.org/</dc:title>
     </cc:Agent>
    </dc:creator>
   </cc:Work>
  </rdf:RDF>
 </metadata>
 <defs>
  <style type="text/css">*{stroke-linejoin: round; stroke-linecap: butt}</style>
 </defs>
 <g id="figure_1">
  <g id="patch_1">
   <path d="M 0 286.056 
L 656.1 286.056 
L 656.1 0 
L 0 0 
z
" style="fill: #ffffff"/>
  </g>
  <g id="axes_1">
   <g id="patch_2">
    <path d="M 39.285 149.8194 
L 122.706 149.8194 
Q 145.1655 149.8194 145.1655 140.31144 
L 145.1655 104.99616 
Q 145.1655 95.4882 122.706 95.4882 
L 39.285 95.4882 
Q 16.8255 95.4882 16.8255 104.99616 
L 16.8255 140.31144 
Q 16.8255 149.8194 39.285 149.8194 
z
" clip-path="url(#pbfe44183d5)" style="fill: #e3f2fd; stroke: #0072b2; stroke-width: 1.4; stroke-linejoin: miter"/>
   </g>
   <g id="patch_3">
    <path d="M 174.042 149.8194 
L 257.463 149.8194 
Q 279.9225 149.8194 279.9225 140.31144 
L 279.9225 104.99616 
Q 279.9225 95.4882 257.463 95.4882 
L 174.042 95.4882 
Q 151.5825 95.4882 151.5825 104.99616 
L 151.5825 140.31144 
Q 151.5825 149.8194 174.042 149.8194 
z
" clip-path="url(#pbfe44183d5)" style="fill: #ffffff; stroke: #666666; stroke-width: 1.4; stroke-linejoin: miter"/>
   </g>
   <g id="patch_4">
    <path d="M 308.799 149.8194 
L 392.22 149.8194 
Q 414.6795 149.8194 414.6795 140.31144 
L 414.6795 104.99616 
Q 414.6795 95.4882 392.22 95.4882 
L 308.799 95.4882 
Q 286.3395 95.4882 286.3395 104.99616 
L 286.3395 140.31144 
Q 286.3395 149.8194 308.799 149.8194 
z
" clip-path="url(#pbfe44183d5)" style="fill: #ffffff; stroke: #666666; stroke-width: 1.4; stroke-linejoin: miter"/>
   </g>
   <g id="patch_5">
    <path d="M 443.556 149.8194 
L 526.977 149.8194 
Q 549.4365 149.8194 549.4365 140.31144 
L 549.4365 104.99616 
Q 549.4365 95.4882 526.977 95.4882 
L 443.556 95.4882 
Q 421.0965 95.4882 421.0965 104.99616 
L 421.0965 140.31144 
Q 421.0965 149.8194 443.556 149.8194 
z
" clip-path="url(#pbfe44183d5)" style="fill: #ffffff; stroke: #666666; stroke-width: 1.4; stroke-linejoin: miter"/>
   </g>
   <g id="patch_6">
    <path d="M 559.062 111.78756 
L 623.232 111.78756 
Q 645.6915 111.78756 645.6915 102.2796 
L 645.6915 75.114 
Q 645.6915 65.60604 623.232 65.60604 
L 559.062 65.60604 
Q 536.6025 65.60604 536.6025 75.114 
L 536.6025 102.2796 
Q 536.6025 111.78756 559.062 111.78756 
z
" clip-path="url(#pbfe44183d5)" style="fill: #e8f5e9; stroke: #009e73; stroke-width: 1.4; stroke-linejoin: miter"/>
   </g>
   <g id="patch_7">
    <path d="M 559.062 193.28436 
L 623.232 193.28436 
Q 645.6915 193.28436 645.6915 183.7764 
L 645.6915 156.6108 
Q 645.6915 147.10284 623.232 147.10284 
L 559.062 147.10284 
Q 536.6025 147.10284 536.6025 156.6108 
L 536.6025 183.7764 
Q 536.6025 193.28436 559.062 193.28436 
z
" clip-path="url(#pbfe44183d5)" style="fill: #fce4ec; stroke: #cc79a7; stroke-width: 1.4; stroke-linejoin: miter"/>
   </g>
   <g id="patch_8">
    <path d="M 131.120479 122.6538 
Q 148.372341 122.6538 164.058955 122.6538 
" clip-path="url(#pbfe44183d5)" style="fill: none; stroke: #3a3a3a; stroke-width: 1.4; stroke-linecap: round"/>
    <path d="M 158.458955 119.8538 
L 164.058955 122.6538 
L 158.458955 125.4538 
z
" clip-path="url(#pbfe44183d5)" style="fill: #3a3a3a; stroke: #3a3a3a; stroke-width: 1.4; stroke-linecap: round"/>
   </g>
   <g id="patch_9">
    <path d="M 265.877479 122.6538 
Q 283.129341 122.6538 298.815955 122.6538 
" clip-path="url(#pbfe44183d5)" style="fill: none; stroke: #3a3a3a; stroke-width: 1.4; stroke-linecap: round"/>
    <path d="M 293.215955 119.8538 
L 298.815955 122.6538 
L 293.215955 125.4538 
z
" clip-path="url(#pbfe44183d5)" style="fill: #3a3a3a; stroke: #3a3a3a; stroke-width: 1.4; stroke-linecap: round"/>
   </g>
   <g id="patch_10">
    <path d="M 400.634479 122.6538 
Q 417.886341 122.6538 433.572955 122.6538 
" clip-path="url(#pbfe44183d5)" style="fill: none; stroke: #3a3a3a; stroke-width: 1.4; stroke-linecap: round"/>
    <path d="M 427.972955 119.8538 
L 433.572955 122.6538 
L 427.972955 125.4538 
z
" clip-path="url(#pbfe44183d5)" style="fill: #3a3a3a; stroke: #3a3a3a; stroke-width: 1.4; stroke-linecap: round"/>
   </g>
   <g id="patch_11">
    <path d="M 534.721736 108.930397 
Q 543.019341 99.56322 550.279064 91.367708 
" clip-path="url(#pbfe44183d5)" style="fill: none; stroke: #009e73; stroke-width: 1.4; stroke-linecap: round"/>
    <path d="M 544.469885 93.702969 
L 550.279064 91.367708 
L 548.661765 97.416208 
z
" clip-path="url(#pbfe44183d5)" style="fill: #009e73; stroke: #009e73; stroke-width: 1.4; stroke-linecap: round"/>
   </g>
   <g id="patch_12">
    <path d="M 217.515192 143.974227 
Q 387.926146 235.001764 562.235743 155.380227 
" clip-path="url(#pbfe44183d5)" style="fill: none; stroke: #cc79a7; stroke-width: 1.4; stroke-linecap: round"/>
    <path d="M 555.978624 155.160087 
L 562.235743 155.380227 
L 558.30536 160.253838 
z
" clip-path="url(#pbfe44183d5)" style="fill: #cc79a7; stroke: #cc79a7; stroke-width: 1.4; stroke-linecap: round"/>
   </g>
   <g id="patch_13">
    <path d="M 352.431259 143.588933 
Q 456.715957 173.795508 561.975431 154.539348 
" clip-path="url(#pbfe44183d5)" style="fill: none; stroke: #cc79a7; stroke-width: 1.4; stroke-linecap: round"/>
    <path d="M 555.962981 152.792797 
L 561.975431 154.539348 
L 556.97072 158.301378 
z
" clip-path="url(#pbfe44183d5)" style="fill: #cc79a7; stroke: #cc79a7; stroke-width: 1.4; stroke-linecap: round"/>
   </g>
   <g id="patch_14">
    <path d="M 487.249292 143.296605 
Q 525.373383 148.461206 561.946394 153.415684 
" clip-path="url(#pbfe44183d5)" style="fill: none; stroke: #cc79a7; stroke-width: 1.4; stroke-linecap: round"/>
    <path d="M 556.772959 149.889273 
L 561.946394 153.415684 
L 556.021204 155.438585 
z
" clip-path="url(#pbfe44183d5)" style="fill: #cc79a7; stroke: #cc79a7; stroke-width: 1.4; stroke-linecap: round"/>
   </g>
   <g id="text_1">
    <text style="font-weight: 600; font-size: 10.5px; font-family: 'Microsoft YaHei', 'SimHei', 'Arial Unicode MS', 'DejaVu Sans', sans-serif; fill: #222222" transform="translate(50.738273 119.204222)">Blind token</text>
    <text style="font-weight: 600; font-size: 10.5px; font-family: 'Microsoft YaHei', 'SimHei', 'Arial Unicode MS', 'DejaVu Sans', sans-serif; fill: #222222" transform="translate(61.029094 131.886581)">request</text>
   </g>
   <g id="text_2">
    <text style="font-weight: 600; font-size: 10.5px; font-family: 'Microsoft YaHei', 'SimHei', 'Arial Unicode MS', 'DejaVu Sans', sans-serif; fill: #222222" transform="translate(190.286719 119.160745)">Signature</text>
    <text style="font-weight: 600; font-size: 10.5px; font-family: 'Microsoft YaHei', 'SimHei', 'Arial Unicode MS', 'DejaVu Sans', sans-serif; fill: #222222" transform="translate(200.689922 131.893964)">valid?</text>
   </g>
   <g id="text_3">
    <text style="font-weight: 600; font-size: 10.5px; font-family: 'Microsoft YaHei', 'SimHei', 'Arial Unicode MS', 'DejaVu Sans', sans-serif; fill: #222222" transform="translate(323.459695 119.204222)">Credential</text>
    <text style="font-weight: 600; font-size: 10.5px; font-family: 'Microsoft YaHei', 'SimHei', 'Arial Unicode MS', 'DejaVu Sans', sans-serif; fill: #222222" transform="translate(326.748328 131.886581)">revoked?</text>
   </g>
   <g id="text_4">
    <text style="font-weight: 600; font-size: 10.5px; font-family: 'Microsoft YaHei', 'SimHei', 'Arial Unicode MS', 'DejaVu Sans', sans-serif; fill: #222222" transform="translate(469.709273 119.178792)">Policy</text>
    <text style="font-weight: 600; font-size: 10.5px; font-family: 'Microsoft YaHei', 'SimHei', 'Arial Unicode MS', 'DejaVu Sans', sans-serif; fill: #222222" transform="translate(460.608727 131.912011)">satisfied?</text>
   </g>
   <g id="text_5">
    <text style="font-weight: 600; font-size: 10.5px; font-family: 'Microsoft YaHei', 'SimHei', 'Arial Unicode MS', 'DejaVu Sans', sans-serif; fill: #222222" transform="translate(573.353602 85.221792)">Return</text>
    <text style="font-weight: 600; font-size: 10.5px; font-family: 'Microsoft YaHei', 'SimHei', 'Arial Unicode MS', 'DejaVu Sans', sans-serif; fill: #222222" transform="translate(568.454695 97.904152)">blind sig</text>
   </g>
   <g id="text_6">
    <text style="font-weight: 600; font-size: 10.5px; font-family: 'Microsoft YaHei', 'SimHei', 'Arial Unicode MS', 'DejaVu Sans', sans-serif; fill: #222222" transform="translate(573.392977 166.744022)">Refuse</text>
    <text style="font-weight: 600; font-size: 10.5px; font-family: 'Microsoft YaHei', 'SimHei', 'Arial Unicode MS', 'DejaVu Sans', sans-serif; fill: #222222" transform="translate(568.806609 179.426381)">issuance</text>
   </g>
   <g id="text_7">
    <text style="font-size: 9.5px; font-family: 'Microsoft YaHei', 'SimHei', 'Arial Unicode MS', 'DejaVu Sans', sans-serif; text-anchor: middle; fill: #3a3a3a" x="148.374" y="110.729277" transform="rotate(-0 148.374 110.729277)">yes</text>
   </g>
   <g id="text_8">
    <text style="font-size: 9.5px; font-family: 'Microsoft YaHei', 'SimHei', 'Arial Unicode MS', 'DejaVu Sans', sans-serif; text-anchor: middle; fill: #3a3a3a" x="283.131" y="110.729277" transform="rotate(-0 283.131 110.729277)">yes</text>
   </g>
   <g id="text_9">
    <text style="font-size: 9.5px; font-family: 'Microsoft YaHei', 'SimHei', 'Arial Unicode MS', 'DejaVu Sans', sans-serif; text-anchor: middle; fill: #3a3a3a" x="417.888" y="110.784199" transform="rotate(-0 417.888 110.784199)">no</text>
   </g>
   <g id="text_10">
    <text style="font-size: 9.5px; font-family: 'Microsoft YaHei', 'SimHei', 'Arial Unicode MS', 'DejaVu Sans', sans-serif; text-anchor: middle; fill: #009e73" x="543.0195" y="87.638517" transform="rotate(-0 543.0195 87.638517)">yes</text>
   </g>
   <g id="text_11">
    <text style="font-size: 9.5px; font-family: 'Microsoft YaHei', 'SimHei', 'Arial Unicode MS', 'DejaVu Sans', sans-serif; text-anchor: middle; fill: #cc79a7" x="390.61575" y="136.591519" transform="rotate(-0 390.61575 136.591519)">no</text>
   </g>
   <g id="text_12">
    <text style="font-size: 9.5px; font-family: 'Microsoft YaHei', 'SimHei', 'Arial Unicode MS', 'DejaVu Sans', sans-serif; text-anchor: middle; fill: #cc79a7" x="457.99425" y="136.536597" transform="rotate(-0 457.99425 136.536597)">yes</text>
   </g>
   <g id="text_13">
    <text style="font-size: 9.5px; font-family: 'Microsoft YaHei', 'SimHei', 'Arial Unicode MS', 'DejaVu Sans', sans-serif; text-anchor: middle; fill: #cc79a7" x="525.37275" y="136.591519" transform="rotate(-0 525.37275 136.591519)">no</text>
   </g>
  </g>
 </g>
 <defs>
  <clipPath id="pbfe44183d5">
   <rect x="7.2" y="7.2" width="641.7" height="271.656"/>
  </clipPath>
 </defs>
</svg>
