<?xml version="1.0" encoding="utf-8" standalone="no"?>
<!DOCTYPE svg PUBLIC "-//W3C//DTD SVG 1.1//EN"
  "http://www.w3.org/Graphics/SVG/1.1/DTD/svg11.dtd">
<svg xmlns:xlink="http://www.w3.org/1999/xlink" width="684pt" height="380.304pt" viewBox="0 0 684 380.304" xmlns="http://www.w3.org/2000/svg" version="1.1">
 <metadata>
  <rdf:RDF xmlns:dc="http://purl.org/dc/elements/1.1/" xmlns:cc="http://creativecommons.org/ns#" xmlns:rdf="http://www.w3.org/1999/02/22-rdf-syntax-ns#">
   <cc:Work>
    <dc:type rdf:resource="http://purl.org/dc/dcmitype/StillImage"/>
    <dc:date>2026-06-06T10:53:21.487759</dc:date>
    <dc:format>image/svg+xml</dc:format>
    <dc:creator>
     <cc:Agent>
      <dc:title>Matplotlib v3.10.9, https://matplotlib.org/</dc:title>
     </cc:Agent>
    </dc:creator>
   </cc:Work>
  </rdf:RDF>
 </metadata>
 <defs>
  <style type="text/css">*{stroke-linejoin: round; stroke-linecap: butt}</style>
 </defs>
 <g id="figure_1">
  <g id="patch_1">
   <path d="M 0 380.304 
L 684 380.304 
L 684 0 
L 0 0 
z
" style="fill: #ffffff"/>
  </g>
  <g id="axes_1">
   <g id="patch_2">
    <path d="M 60.768 82.21032 
L 167.904 82.21032 
Q 191.34 82.21032 191.34 69.40368 
L 191.34 40.13136 
Q 191.34 27.32472 167.904 27.32472 
L 60.768 27.32472 
Q 37.332 27.32472 37.332 40.13136 
L 37.332 69.40368 
Q 37.332 82.21032 60.768 82.21032 
z
" clip-path="url(#pefe5b2a754)" style="fill: #e3f2fd; stroke: #0072b2; stroke-width: 1.4; stroke-linejoin: miter"/>
   </g>
   <g id="patch_3">
    <path d="M 288.432 82.21032 
L 395.568 82.21032 
Q 419.004 82.21032 419.004 69.40368 
L 419.004 40.13136 
Q 419.004 27.32472 395.568 27.32472 
L 288.432 27.32472 
Q 264.996 27.32472 264.996 40.13136 
L 264.996 69.40368 
Q 264.996 82.21032 288.432 82.21032 
z
" clip-path="url(#pefe5b2a754)" style="fill: #e8f5e9; stroke: #009e73; stroke-width: 1.4; stroke-linejoin: miter"/>
   </g>
   <g id="patch_4">
    <path d="M 516.096 82.21032 
L 623.232 82.21032 
Q 646.668 82.21032 646.668 69.40368 
L 646.668 40.13136 
Q 646.668 27.32472 623.232 27.32472 
L 516.096 27.32472 
Q 492.66 27.32472 492.66 40.13136 
L 492.66 69.40368 
Q 492.66 82.21032 516.096 82.21032 
z
" clip-path="url(#pefe5b2a754)" style="fill: #fff3e0; stroke: #d55e00; stroke-width: 1.4; stroke-linejoin: miter"/>
   </g>
   <g id="patch_5">
    <path d="M 340.002521 95.01696 
Q 228.169567 95.01696 117.901862 95.01696 
" clip-path="url(#pefe5b2a754)" style="fill: none; stroke: #333333; stroke-width: 1.4; stroke-linecap: round"/>
    <path d="M 123.501862 97.81696 
L 117.901862 95.01696 
L 123.501862 92.21696 
z
" clip-path="url(#pefe5b2a754)" style="fill: #333333; stroke: #333333; stroke-width: 1.4; stroke-linecap: round"/>
   </g>
   <g id="patch_6">
    <path d="M 567.666521 131.60736 
Q 342.002536 131.60736 117.903799 131.60736 
" clip-path="url(#pefe5b2a754)" style="fill: none; stroke: #333333; stroke-width: 1.4; stroke-linecap: round"/>
    <path d="M 123.503799 134.40736 
L 117.903799 131.60736 
L 123.503799 128.80736 
z
" clip-path="url(#pefe5b2a754)" style="fill: #333333; stroke: #333333; stroke-width: 1.4; stroke-linecap: round"/>
   </g>
   <g id="patch_7">
    <path d="M 116.333479 168.19776 
Q 341.997464 168.19776 566.096201 168.19776 
" clip-path="url(#pefe5b2a754)" style="fill: none; stroke: #333333; stroke-width: 1.4; stroke-linecap: round"/>
    <path d="M 560.496201 165.39776 
L 566.096201 168.19776 
L 560.496201 170.99776 
z
" clip-path="url(#pefe5b2a754)" style="fill: #333333; stroke: #333333; stroke-width: 1.4; stroke-linecap: round"/>
   </g>
   <g id="patch_8">
    <path d="M 116.333479 204.78816 
Q 341.997464 204.78816 566.096201 204.78816 
" clip-path="url(#pefe5b2a754)" style="fill: none; stroke: #333333; stroke-width: 1.4; stroke-linecap: round"/>
    <path d="M 560.496201 201.98816 
L 566.096201 204.78816 
L 560.496201 207.58816 
z
" clip-path="url(#pefe5b2a754)" style="fill: #333333; stroke: #333333; stroke-width: 1.4; stroke-linecap: round"/>
   </g>
   <g id="patch_9">
    <path d="M 116.333479 241.37856 
Q 228.166433 241.37856 338.434138 241.37856 
" clip-path="url(#pefe5b2a754)" style="fill: none; stroke: #333333; stroke-width: 1.4; stroke-linecap: round"/>
    <path d="M 332.834138 238.57856 
L 338.434138 241.37856 
L 332.834138 244.17856 
z
" clip-path="url(#pefe5b2a754)" style="fill: #333333; stroke: #333333; stroke-width: 1.4; stroke-linecap: round"/>
   </g>
   <g id="patch_10">
    <path d="M 340.002521 270.65088 
Q 228.169567 270.65088 117.901862 270.65088 
" clip-path="url(#pefe5b2a754)" style="fill: none; stroke: #333333; stroke-width: 1.4; stroke-linecap: round"/>
    <path d="M 123.501862 273.45088 
L 117.901862 270.65088 
L 123.501862 267.85088 
z
" clip-path="url(#pefe5b2a754)" style="fill: #333333; stroke: #333333; stroke-width: 1.4; stroke-linecap: round"/>
   </g>
   <g id="patch_11">
    <path d="M 116.333479 299.9232 
Q 341.997464 299.9232 566.096201 299.9232 
" clip-path="url(#pefe5b2a754)" style="fill: none; stroke: #333333; stroke-width: 1.4; stroke-linecap: round"/>
    <path d="M 560.496201 297.1232 
L 566.096201 299.9232 
L 560.496201 302.7232 
z
" clip-path="url(#pefe5b2a754)" style="fill: #333333; stroke: #333333; stroke-width: 1.4; stroke-linecap: round"/>
   </g>
   <g id="line2d_1">
    <path d="M 114.336 318.2184 
L 114.336 73.06272 
" clip-path="url(#pefe5b2a754)" style="fill: none; stroke-dasharray: 4.44,1.92; stroke-dashoffset: 0; stroke: #b0b0b0; stroke-width: 1.2"/>
   </g>
   <g id="line2d_2">
    <path d="M 342 318.2184 
L 342 73.06272 
" clip-path="url(#pefe5b2a754)" style="fill: none; stroke-dasharray: 4.44,1.92; stroke-dashoffset: 0; stroke: #b0b0b0; stroke-width: 1.2"/>
   </g>
   <g id="line2d_3">
    <path d="M 569.664 318.2184 
L 569.664 73.06272 
" clip-path="url(#pefe5b2a754)" style="fill: none; stroke-dasharray: 4.44,1.92; stroke-dashoffset: 0; stroke: #b0b0b0; stroke-width: 1.2"/>
   </g>
   <g id="text_1">
    <text style="font-weight: 600; font-size: 12px; font-family: 'Microsoft YaHei', 'SimHei', 'Arial Unicode MS', 'DejaVu Sans', sans-serif; text-anchor: middle; fill: #222222" x="114.336" y="58.072207" transform="rotate(-0 114.336 58.072207)">Holder</text>
   </g>
   <g id="text_2">
    <text style="font-weight: 600; font-size: 12px; font-family: 'Microsoft YaHei', 'SimHei', 'Arial Unicode MS', 'DejaVu Sans', sans-serif; text-anchor: middle; fill: #222222" x="342" y="58.072207" transform="rotate(-0 342 58.072207)">Issuer</text>
   </g>
   <g id="text_3">
    <text style="font-weight: 600; font-size: 12px; font-family: 'Microsoft YaHei', 'SimHei', 'Arial Unicode MS', 'DejaVu Sans', sans-serif; text-anchor: middle; fill: #222222" x="569.664" y="58.072207" transform="rotate(-0 569.664 58.072207)">Verifier</text>
   </g>
   <g id="text_4">
    <text style="font-size: 9.5px; font-family: 'Microsoft YaHei', 'SimHei', 'Arial Unicode MS', 'DejaVu Sans', sans-serif; text-anchor: middle; fill: #333333" x="228.168" y="79.793757" transform="rotate(-0 228.168 79.793757)">1. signed credential root</text>
   </g>
   <g id="text_5">
    <text style="font-size: 9.5px; font-family: 'Microsoft YaHei', 'SimHei', 'Arial Unicode MS', 'DejaVu Sans', sans-serif; text-anchor: middle; fill: #333333" x="342" y="116.384157" transform="rotate(-0 342 116.384157)">2. access policy</text>
   </g>
   <g id="text_6">
    <text style="font-size: 9.5px; font-family: 'Microsoft YaHei', 'SimHei', 'Arial Unicode MS', 'DejaVu Sans', sans-serif; text-anchor: middle; fill: #333333" x="342" y="153.029479" transform="rotate(-0 342 153.029479)">3a. full attributes (baseline)</text>
   </g>
   <g id="text_7">
    <text style="font-size: 9.5px; font-family: 'Microsoft YaHei', 'SimHei', 'Arial Unicode MS', 'DejaVu Sans', sans-serif; text-anchor: middle; fill: #333333" x="342" y="189.619879" transform="rotate(-0 342 189.619879)">3b. disclosed fields + Schnorr proof</text>
   </g>
   <g id="text_8">
    <text style="font-size: 9.5px; font-family: 'Microsoft YaHei', 'SimHei', 'Arial Unicode MS', 'DejaVu Sans', sans-serif; text-anchor: middle; fill: #333333" x="228.168" y="226.210279" transform="rotate(-0 228.168 226.210279)">3c. blind token request</text>
   </g>
   <g id="text_9">
    <text style="font-size: 9.5px; font-family: 'Microsoft YaHei', 'SimHei', 'Arial Unicode MS', 'DejaVu Sans', sans-serif; text-anchor: middle; fill: #333333" x="228.168" y="255.427677" transform="rotate(-0 228.168 255.427677)">4. blind signature / refusal</text>
   </g>
   <g id="text_10">
    <text style="font-size: 9.5px; font-family: 'Microsoft YaHei', 'SimHei', 'Arial Unicode MS', 'DejaVu Sans', sans-serif; text-anchor: middle; fill: #333333" x="342" y="284.754919" transform="rotate(-0 342 284.754919)">5. redeem unblinded token</text>
   </g>
  </g>
 </g>
 <defs>
  <clipPath id="pefe5b2a754">
   <rect x="7.2" y="7.2" width="669.6" height="365.904"/>
  </clipPath>
 </defs>
</svg>
